<svg width="32" height="32" viewBox="0 0 32 32" fill="none" xmlns="http://www.w3.org/2000/svg">
<path d="M12 29.3333H20C26.6667 29.3333 29.3334 26.6666 29.3334 20V12C29.3334 5.33329 26.6667 2.66663 20 2.66663H12C5.33335 2.66663 2.66669 5.33329 2.66669 12V20C2.66669 26.6666 5.33335 29.3333 12 29.3333Z" stroke="white" stroke-width="3" stroke-linecap="round" stroke-linejoin="round"/>
<path d="M12.1333 15.9999V14.0265C12.1333 11.4799 13.9333 10.4532 16.1333 11.7199L17.84 12.7065L19.5466 13.6932C21.7466 14.9599 21.7466 17.0399 19.5466 18.3065L17.84 19.2932L16.1333 20.2799C13.9333 21.5465 12.1333 20.5065 12.1333 17.9732V15.9999Z" stroke="white" stroke-width="3" stroke-miterlimit="10" stroke-linecap="round" stroke-linejoin="round"/>
</svg>
